<svg xmlns="http://www.w3.org/2000/svg" shape-rendering="geometricPrecision" text-rendering="geometricPrecision" image-rendering="optimizeQuality" fill-rule="evenodd" clip-rule="evenodd" viewBox="0 0 513 357.071"><path fill-rule="nonzero" d="M28.477.32h456.044c15.488 0 28.159 12.672 28.159 28.16v300.111c0 15.488-12.671 28.16-28.159 28.16H28.477c-15.486 0-28.157-12.672-28.157-28.16V28.48C.32 12.992 12.991.32 28.477.32z"/><path fill="#fff" fill-rule="nonzero" d="M512.68 237.942H.32V28.48C.32 12.992 12.991.32 28.477.32h456.044c15.488 0 28.159 12.672 28.159 28.16v209.462z"/><path fill="#CE1126" fill-rule="nonzero" d="M512.68 119.129H.32V28.48C.32 12.992 12.991.32 28.477.32h456.044c15.488 0 28.159 12.672 28.159 28.16v90.649z"/><rect fill="none" stroke="#CCC" stroke-width=".64" stroke-miterlimit="22.926" x=".32" y=".319" width="512.359" height="356.43" rx="27.231" ry="28.159"/><path fill="#fff" fill-rule="nonzero" d="M256.979 179.963l40.685 37.77-2.897-68.597c-.425-10.396-9.458-8.011-16.022-4.26-6.648 4.26-14.233 4.26-22.245 1.447-8.011 2.813-15.595 2.813-22.244-1.447-6.562-3.751-15.596-6.136-16.022 4.26l-2.898 68.597 41.643-37.77z"/><path fill="#C09300" fill-rule="nonzero" d="M257.235 179.688l40.015 37.147-2.858-67.684c-.08-1.953-.47-3.433-1.092-4.522-.562-.984-1.317-1.647-2.204-2.052-.901-.411-1.947-.562-3.073-.516-2.855.117-6.21 1.496-9.09 3.142l-.007.004c-3.376 2.157-6.989 3.237-10.774 3.42-3.741.182-7.646-.513-11.652-1.906-4.006 1.393-7.91 2.088-11.651 1.906-3.787-.183-7.403-1.264-10.78-3.424-2.879-1.646-6.234-3.025-9.089-3.142-1.126-.046-2.173.105-3.073.516-.887.404-1.643 1.069-2.205 2.052-.622 1.089-1.013 2.569-1.093 4.522l-2.86 67.7 40.978-37.166a.376.376 0 01.508.003zm40.173 38.32l-40.433-37.535L215.6 218a.376.376 0 01-.64-.282l2.898-68.597c.086-2.084.511-3.679 1.19-4.866.645-1.128 1.517-1.892 2.546-2.362 1.015-.463 2.177-.634 3.416-.583 2.994.123 6.468 1.544 9.433 3.239l.016.011c3.266 2.092 6.763 3.139 10.426 3.316 3.678.178 7.53-.517 11.491-1.908a.376.376 0 01.248 0c3.962 1.391 7.814 2.086 11.492 1.908 3.656-.177 7.147-1.22 10.407-3.304l.035-.023c2.967-1.695 6.441-3.117 9.435-3.239 1.239-.051 2.4.12 3.415.583 1.029.47 1.901 1.233 2.546 2.362.679 1.187 1.104 2.782 1.189 4.866l2.896 68.58a.376.376 0 01-.631.307z"/><path fill="#C09300" fill-rule="nonzero" d="M222.914 146.748l-2.812 66.725-4.773 4.259 2.899-68.596c1.363-.937 3.75-2.386 4.686-2.386v-.002zm5.716 4.777l-2.386 55.815-4.773 4.883 2.898-64.45c.937.938 3.751 3.239 4.261 3.749v.003zm5.197 4.26l-1.873 46.551-3.836 3.749 2.388-53.112c.935.937 2.809 2.301 3.321 2.812zm5.626 2.388l-1.875 39.675-3.75 3.041 1.875-44.165c.938.427 2.813 1.449 3.75 1.449zm5.198 0l-1.364 33.063-3.835 3.751 1.45-36.387c.935 0 3.323 0 3.749-.427zM290.08 146.748l2.812 66.725 4.773 4.259-2.899-68.596c-1.362-.937-3.75-2.386-4.686-2.386v-.002zm-5.716 4.777l2.387 55.815 4.772 4.883-2.898-64.45c-.937.938-3.751 3.239-4.261 3.749v.003zm-5.198 4.26l1.874 46.551 3.836 3.749-2.388-53.112c-.936.937-2.809 2.301-3.322 2.812zm-5.625 2.388l1.874 39.675 3.751 3.041-1.875-44.165c-.938.427-2.813 1.449-3.75 1.449zm-5.198 0l1.364 33.063 3.835 3.751-1.45-36.387c-.935 0-3.322 0-3.749-.427zM258.374 187.484l5.71 25.993-1.875 1.874-1.96-1.449-3.238-23.178 1.362 23.178-1.875 2.385-1.875-2.385 1.364-23.178-3.237 23.178-1.962 1.449-1.875-1.874 5.71-25.994h3.751z"/><path fill="#C09300" fill-rule="nonzero" d="M258.694 187.451l5.739 26.127-2.193 2.192-2.288-1.692-2.157-15.441.903 15.367-2.2 2.799-2.199-2.799.903-15.359-2.155 15.433-2.291 1.692-2.191-2.191c1.93-8.806 3.859-17.613 5.802-26.416h4.327v.288zm5.042 25.925l-5.618-25.574h-3.238l-5.618 25.573 1.558 1.558 1.633-1.207 3.219-23.046.633.062-1.357 23.058 1.55 1.972 1.55-1.972-1.355-23.058.633-.062 3.22 23.046 1.632 1.207 1.558-1.557z"/><path fill="#fff" fill-rule="nonzero" d="M243.713 176.066l-11.335 40.22 15.597 2.387 6.647-30.252z"/><path fill="#C09300" fill-rule="nonzero" d="M243.877 176.784l-11.051 39.213 14.875 2.276 6.538-29.754-10.362-11.735zm-11.839 39.407l11.335-40.22a.352.352 0 01.603-.138l10.89 12.333a.352.352 0 01.101.33l-6.645 30.243a.354.354 0 01-.4.283l-15.639-2.396a.354.354 0 01-.245-.435z"/><path fill="#C09300" fill-rule="nonzero" d="M240.312 189.646l1.154 2.813 6.972-6.659.518.545-7.366 7.035a.376.376 0 01-.61-.126l-1.363-3.322.695-.286z"/><path fill="#C09300" fill-rule="nonzero" d="M245.441 181.42l1.442 13.525 4.115-5.386.598.457-1.746 2.285 1.92 6.624.902-1.37.628.412-1.255 1.906.298 1.03-.721.21-.121-.415-3.327 5.054 1.617 7.649-.737.154-1.476-6.986-3.035 4.72a.375.375 0 01-.677-.082l-1.62-4.933-2.948 4.847 1.713 5.684 2.375-4.031a.375.375 0 01.681.074l1.877 5.709-.716.233-1.616-4.919-2.379 4.037a.375.375 0 01-.695-.065l-1.83-6.071-2.703 3.797-.612-.436 3.101-4.357-2.381-8.735a.377.377 0 01.088-.378l4.845-4.969a.376.376 0 01.643.15l1.314 4.676 3.013-4.08a.375.375 0 01.671.158l1.288 7.091 3.252-4.939-1.944-6.707-2.375 3.108a.378.378 0 01-.674-.188l-1.541-14.464.748-.079zm1.92 24.095l-1.258-6.928-2.953 3.999a.376.376 0 01-.663-.122l-1.347-4.789-4.25 4.359 2.182 8.01 2.955-4.859a.376.376 0 01.679.079l1.629 4.959 3.026-4.708z"/><path fill="#fff" fill-rule="nonzero" d="M269.282 176.066l11.334 40.22-15.597 2.387-6.647-30.252z"/><path fill="#C09300" fill-rule="nonzero" d="M269.621 175.971l11.335 40.22a.354.354 0 01-.245.435l-15.639 2.396a.354.354 0 01-.4-.283l-6.645-30.243a.352.352 0 01.101-.33l10.89-12.333a.352.352 0 01.603.138zm10.547 40.026l-11.051-39.213-10.362 11.735 6.538 29.754 14.875-2.276z"/><path fill="#C09300" fill-rule="nonzero" d="M273.377 189.932l-1.364 3.322a.377.377 0 01-.61.126l-7.366-7.035.518-.545 6.972 6.659 1.155-2.813.695.286z"/><path fill="#C09300" fill-rule="nonzero" d="M268.301 181.499l-1.543 14.464a.375.375 0 01-.672.188l-2.375-3.107-1.944 6.706 3.252 4.939 1.286-7.091a.376.376 0 01.672-.158l3.014 4.08 1.313-4.676a.376.376 0 01.643-.15l4.846 4.969c.1.103.129.249.088.378l-2.382 8.735 3.102 4.357-.613.436-2.703-3.797-1.829 6.071a.376.376 0 01-.685.084l-2.39-4.056-1.617 4.919-.715-.233 1.875-5.706a.377.377 0 01.683-.078l2.376 4.031 1.712-5.684-2.946-4.847-1.62 4.934a.376.376 0 01-.678.082l-3.035-4.72-1.476 6.986-.737-.154 1.617-7.648-3.328-5.055-.12.415-.721-.21.298-1.03-1.255-1.906.628-.412.902 1.37 1.92-6.624-1.746-2.285.598-.457 4.115 5.386 1.442-13.525.748.079zm-1.411 17.088l-1.257 6.928 3.027 4.708 1.628-4.959a.375.375 0 01.678-.078l2.954 4.859 2.184-8.011-4.251-4.359-1.345 4.789a.376.376 0 01-.664.122l-2.954-3.999z"/><path fill="#fff" fill-rule="nonzero" d="M256.497 234.266c11.847 0 23.183-.937 29.83-2.812 2.813-.511 2.813-1.96 2.813-3.835 2.812-.937 1.363-4.26 3.323-4.26-1.96.512-2.385-3.323-4.772-2.811 0-3.325-3.325-3.75-6.136-2.814-5.626 1.876-15.597 2.302-25.058 2.302-9.461-.426-19.346-.426-25.057-2.302-2.812-.936-6.135-.511-6.135 2.814-2.387-.512-2.814 3.324-4.772 2.811 1.958 0 .51 3.323 3.322 4.26 0 1.875 0 3.324 2.898 3.835 6.562 1.875 17.898 2.812 29.744 2.812z"/><path fill="#C09300" fill-rule="nonzero" d="M256.497 233.56c6.083 0 12.014-.246 17.225-.737 4.923-.464 9.221-1.147 12.415-2.048l.102-.02c1.13-.21 1.677-.569 1.926-1.038l.024-.04c.245-.5.245-1.234.245-2.058 0-.333.23-.612.54-.687 1.083-.389 1.316-1.349 1.51-2.155.098-.409.191-.793.334-1.12-.384-.307-.716-.732-1.055-1.167-.54-.693-1.112-1.427-1.925-1.252a.706.706 0 01-.852-.69 3.192 3.192 0 00-.144-1 2.003 2.003 0 00-.976-1.158c-.488-.265-1.112-.384-1.79-.384-.749 0-1.546.144-2.301.396-2.877.959-6.833 1.545-11.259 1.89-4.404.343-9.278.45-14.019.45l-.085-.005a578.123 578.123 0 00-5.023-.198c-7.827-.287-15.387-.565-20.167-2.135l-.048-.017a7.383 7.383 0 00-2.255-.38c-.675 0-1.298.119-1.79.386a2.004 2.004 0 00-.974 1.155 3.158 3.158 0 00-.144 1 .707.707 0 01-.887.683c-.796-.147-1.36.576-1.893 1.26-.339.435-.67.86-1.055 1.167.143.326.236.71.334 1.119.198.82.435 1.798 1.566 2.174a.704.704 0 01.482.668c.003 1.541.004 2.732 2.317 3.14l.088.021c3.151.898 7.416 1.579 12.313 2.042 5.201.492 11.135.738 17.221.738zm17.358.664c-5.291.499-11.267.748-17.358.748-6.094 0-12.072-.25-17.353-.749-4.983-.471-9.33-1.165-12.55-2.081-3.192-.574-3.426-2.079-3.443-4.049-1.454-.688-1.754-1.929-2.009-2.985-.114-.471-.212-.877-.445-1.003a2.512 2.512 0 01-.341-.065.705.705 0 01.177-1.385c.156-.002.298.009.427.03.397-.078.771-.558 1.162-1.06.666-.855 1.364-1.75 2.533-1.83.037-.243.093-.472.165-.688a3.373 3.373 0 011.636-1.955c.71-.385 1.563-.557 2.463-.557.874 0 1.807.166 2.695.456l.043.013c4.601 1.511 12.059 1.785 19.782 2.068 1.687.061 3.387.124 5.036.198l.022-.001c4.719 0 9.562-.105 13.914-.444 4.331-.337 8.176-.902 10.923-1.818.902-.301 1.852-.473 2.742-.473.896 0 1.75.173 2.464.56a3.373 3.373 0 011.637 1.953c.072.216.127.446.164.688 1.168.08 1.865.975 2.531 1.829.392.502.767.983 1.163 1.061.13-.021.272-.032.428-.032a.707.707 0 01.111 1.403 2.23 2.23 0 01-.276.049c-.234.126-.332.532-.446 1.003-.254 1.057-.554 2.297-2.007 2.985-.009.813-.064 1.551-.405 2.227l-.028.059c-.446.839-1.286 1.455-2.913 1.758-3.266.92-7.642 1.616-12.644 2.087z"/><path fill="#fff" fill-rule="nonzero" d="M240.391 216.284c3.835.512 8.097.936 11.421.512 1.874 0 3.238 3.237-.511 3.75-3.324.425-8.523 0-11.335-.513-2.386-.425-7.586-1.363-10.91-2.302-3.324-1.447-.936-4.259.937-3.833 2.898.937 6.648 1.875 10.4 2.386h-.002zm32.218 0c-3.837.512-8.097.936-11.336.512-1.961 0-3.325 3.237.425 3.75 3.325.425 8.524 0 11.334-.513 2.387-.425 7.585-1.363 10.91-2.302 3.324-1.447.938-4.259-.938-3.833-2.897.937-6.646 1.875-10.395 2.386z"/><path fill="#C09300" fill-rule="nonzero" d="M240.459 215.914c1.9.254 3.908.485 5.856.601 1.941.116 3.817.117 5.45-.092l.047-.003c.807-.001 1.532.489 1.924 1.148l.013.023c.165.284.271.599.298.917.028.338-.03.684-.195 1.008-.334.656-1.109 1.212-2.501 1.403l-.019.002c-1.524.192-3.426.211-5.312.126-2.288-.103-4.564-.361-6.119-.643-1.178-.21-3.057-.547-5.112-.961-2.026-.407-4.169-.879-5.835-1.35l-.069-.027c-1.127-.496-1.67-1.161-1.821-1.832a1.874 1.874 0 01.085-1.084c.124-.329.333-.633.595-.886.602-.584 1.505-.92 2.331-.733l.047.014a63.06 63.06 0 005.164 1.416c1.664.381 3.414.713 5.157.95l.016.003zm5.812 1.353c-1.955-.117-3.98-.351-5.898-.606l-.065-.009a59.068 59.068 0 01-5.19-.958 63.087 63.087 0 01-5.221-1.432c-.566-.123-1.198.123-1.629.541a1.703 1.703 0 00-.415.612c-.08.211-.105.436-.055.657.1.451.51.918 1.382 1.303 1.654.466 3.765.931 5.756 1.331 1.971.397 3.887.741 5.094.956 1.528.279 3.767.532 6.023.634 1.85.083 3.709.066 5.185-.121l.013-.001c1.107-.152 1.698-.545 1.93-1 .098-.192.132-.399.115-.604a1.443 1.443 0 00-.194-.598l-.011-.018c-.265-.444-.743-.777-1.268-.781-1.681.211-3.588.21-5.552.094zm26.377-.609c-1.925.256-3.957.491-5.909.609-1.954.117-3.84.117-5.479-.094-.562.005-1.064.344-1.34.797-.116.19-.19.402-.209.615-.018.203.016.409.114.598.232.452.822.84 1.923.991l.013.001c1.476.187 3.335.204 5.186.121 2.255-.102 4.494-.355 6.018-.633 1.21-.216 3.125-.56 5.097-.957 1.992-.4 4.102-.865 5.756-1.331.872-.385 1.282-.852 1.382-1.303.05-.221.025-.446-.054-.657a1.693 1.693 0 00-.416-.612c-.431-.418-1.063-.664-1.631-.541a62.893 62.893 0 01-5.218 1.432 59.428 59.428 0 01-5.222.963l-.011.001zm-5.953-.143c1.939-.116 3.949-.348 5.853-.602l.011-.002a58.372 58.372 0 005.154-.951 62.62 62.62 0 005.162-1.415l.046-.014c.827-.187 1.731.149 2.333.733.263.253.472.557.596.886.129.341.167.711.084 1.084-.15.671-.694 1.336-1.821 1.832l-.069.027c-1.666.471-3.809.943-5.835 1.35-2.055.414-3.933.751-5.113.961-1.553.282-3.828.54-6.116.643-1.886.085-3.789.066-5.313-.126l-.019-.002c-1.384-.189-2.157-.74-2.492-1.391a1.83 1.83 0 01-.196-1.008 2.2 2.2 0 01.318-.942c.404-.663 1.152-1.159 1.995-1.159l.049.004c1.591.209 3.444.208 5.373.092z"/><path fill="#fff" fill-rule="nonzero" d="M228.63 214.413c-2.898-.513-4.262 2.809-3.324 4.684.426-.936 2.387-.936 2.814-1.875.51-1.446-.427-1.446.51-2.809zm11.335 8.714c0-1.873 1.873-1.642 1.873-3.517 0-.937-.511-2.388-1.448-2.388-.937 0-1.875.939-1.875 1.875-.427 1.876 1.45 2.157 1.45 4.03zm13.49-5.394c2.811 0 2.532 3.752 1.168 5.626 0-1.364-2.386-1.874-2.386-2.811 0-1.451 2.154-1.451 1.218-2.815zm30.909-3.32c2.898-.513 4.262 2.809 3.325 4.684-.427-.936-2.387-.936-2.813-1.875-.512-1.446.426-1.446-.512-2.809zm-11.335 8.714c0-1.873-1.872-1.642-1.872-3.517 0-.937.51-2.388 1.448-2.388.937 0 1.874.939 1.874 1.875.427 1.876-1.45 2.157-1.45 4.03zm-13.49-5.394c-2.812 0-2.533 3.752-1.169 5.626 0-1.364 2.385-1.874 2.385-2.811.001-1.451-2.154-1.451-1.216-2.815z"/><path fill="#C09300" fill-rule="nonzero" d="M228.002 214.737a2.385 2.385 0 00-1.048.249 2.627 2.627 0 00-.999.902 3.402 3.402 0 00-.514 1.294c-.071.403-.07.809.008 1.181.317-.235.721-.394 1.125-.553.52-.203 1.041-.408 1.198-.734.186-.54.135-.843.09-1.112-.061-.368-.115-.694.14-1.227zm-1.384-.423c.584-.292 1.282-.413 2.077-.272a.377.377 0 01.245.585c-.433.629-.388.898-.336 1.213.061.36.129.766-.123 1.49l-.018.049c-.276.607-.947.87-1.615 1.133-.525.206-1.05.413-1.199.74a.374.374 0 01-.678.013c-.325-.649-.407-1.443-.272-2.212a4.174 4.174 0 01.631-1.583 3.38 3.38 0 011.288-1.156zm13.377 7.445c.189-.26.424-.467.659-.672.403-.354.807-.709.807-1.477 0-.467-.14-1.074-.408-1.515-.175-.289-.401-.496-.663-.496-.364 0-.737.191-1.022.476-.285.285-.476.658-.476 1.022a.381.381 0 01-.016.108c-.174.808.195 1.283.582 1.781.188.242.38.489.537.773zm1.153-.107c-.402.354-.806.708-.806 1.475a.377.377 0 11-.754 0c0-.747-.371-1.223-.725-1.678-.497-.639-.969-1.248-.725-2.39.012-.559.288-1.109.697-1.517.417-.418.983-.697 1.555-.697.566 0 1.001.36 1.305.861.341.562.52 1.324.52 1.904 0 1.106-.534 1.575-1.067 2.042zm12.307-4.296c.625 0 1.126.166 1.514.448l.027.022c.355.267.608.629.771 1.048.16.412.233.878.233 1.361 0 1.156-.422 2.449-1.073 3.345a.376.376 0 01-.679-.221c-.002-.548-.629-.98-1.198-1.37l-.014-.011c-.616-.423-1.176-.813-1.176-1.43 0-.834.515-1.253.977-1.63.335-.274.625-.511.307-.973a.378.378 0 01.311-.589zm1.072 1.058a1.478 1.478 0 00-.445-.218c.116.581-.304.924-.771 1.305-.33.269-.697.569-.697 1.047 0 .225.403.505.848.811l.013.008c.459.315.948.652 1.245 1.096a5.29 5.29 0 00.526-2.228 3.03 3.03 0 00-.181-1.09 1.605 1.605 0 00-.517-.717l-.021-.014zm29.772-4.372c.796-.14 1.493-.021 2.076.27l.031.017a3.38 3.38 0 011.258 1.141c.319.476.533 1.026.631 1.583.136.77.054 1.564-.269 2.212a.378.378 0 01-.687-.028c-.16-.319-.677-.522-1.192-.725-.668-.262-1.338-.526-1.614-1.135l-.012-.029c-.26-.736-.192-1.145-.131-1.509.053-.315.097-.584-.335-1.212a.377.377 0 01.244-.585zm1.741.945a2.42 2.42 0 00-1.048-.25c.256.533.202.859.14 1.226-.045.27-.095.575.094 1.119.158.321.677.526 1.195.729.403.158.807.317 1.124.552.078-.372.079-.779.008-1.18a3.406 3.406 0 00-.514-1.295 2.648 2.648 0 00-.973-.89l-.026-.011zm-13.388 8.14c0-.767-.403-1.121-.806-1.475-.532-.467-1.066-.936-1.066-2.042 0-.58.179-1.341.519-1.904.305-.502.74-.861 1.306-.861.573 0 1.138.279 1.555.697.408.408.684.958.696 1.517.245 1.143-.228 1.751-.725 2.39l-.019.023c-.348.447-.706.919-.706 1.655a.377.377 0 11-.754 0zm-.311-2.04c.235.206.47.412.659.673.152-.275.336-.515.519-.749l.017-.025c.387-.498.756-.972.582-1.781a.381.381 0 01-.016-.108c0-.364-.19-.737-.475-1.022-.285-.285-.658-.476-1.022-.476-.262 0-.488.207-.663.496-.267.441-.408 1.048-.408 1.515 0 .768.404 1.123.807 1.477zm-13.428-2.893a1.48 1.48 0 00-.447.219 1.603 1.603 0 00-.539.732c-.123.318-.18.693-.18 1.09 0 .742.197 1.546.526 2.228.297-.444.785-.78 1.243-1.095.45-.309.862-.593.862-.82.001-.477-.366-.778-.696-1.047-.467-.381-.887-.724-.769-1.307zm-.889-.388c.39-.284.891-.45 1.515-.45a.375.375 0 01.309.589c-.317.462-.027.699.308.973.461.376.975.796.975 1.63.001.621-.567 1.013-1.188 1.439-.568.391-1.196.823-1.196 1.372a.375.375 0 01-.68.221c-.652-.896-1.074-2.189-1.074-3.345a3.8 3.8 0 01.233-1.361c.167-.43.428-.799.798-1.068z"/><path fill="#fff" fill-rule="nonzero" d="M229.569 215.351c.938 0 2.386.426 2.812.936l-2.816-.938.004.002zm4.68 1.45c.513 0 2.387.425 3.325.936l-3.327-.939.002.003zm17.05 1.871c-.938 0-2.812 0-3.323.425l3.321-.428.002.003zm-5.198 0c-.51-.512-2.386-.512-3.323 0h3.323zm37.33-3.321c-.937 0-2.301.426-2.812.936l2.812-.936zm-4.686 1.45c-.512 0-2.387.425-3.325.936l3.328-.939-.003.003zm-17.051 1.871c.939 0 2.814 0 3.325.425l-3.327-.428.002.003zm5.199 0c.511-.512 2.387-.512 3.323 0h-3.326.003z"/><path fill="#C09300" fill-rule="nonzero" d="M229.59 215.087c.511.003 1.158.124 1.725.312.548.182 1.032.435 1.269.719a.264.264 0 01-.302.414l-2.774-.924a.28.28 0 01-.075-.03l-.004-.002a.266.266 0 01-.115-.31.265.265 0 01.276-.179zm4.696 1.45c.327.009 1.049.146 1.783.352.591.167 1.201.382 1.631.616a.264.264 0 01-.198.486l-3.299-.931a.255.255 0 01-.134-.067.265.265 0 01.217-.456zm17.013 2.399l-3.29.423a.263.263 0 01-.202-.465c.579-.481 2.48-.487 3.46-.487a.265.265 0 11.032.529zm-6.7-.913c.701 0 1.358.149 1.672.446a.265.265 0 01-.17.467h-3.323a.264.264 0 01-.126-.496c.508-.278 1.259-.417 1.947-.417zm37.15-2.634c.557-.186 1.178-.302 1.682-.302a.266.266 0 01.251.181.265.265 0 01-.168.334l-2.803.933a.264.264 0 01-.278-.435c.279-.279.772-.53 1.316-.711zm-4.824 1.501c.734-.207 1.456-.344 1.784-.353a.263.263 0 01.217.456.255.255 0 01-.135.067l-3.299.931a.264.264 0 01-.198-.486c.43-.234 1.039-.449 1.631-.615zm-15.203 1.517c.979 0 2.885.005 3.466.487a.265.265 0 01-.202.465l-3.292-.423a.267.267 0 01-.2-.093.267.267 0 01-.064-.207.265.265 0 01.292-.229zm5.007.055c.317-.293.97-.439 1.666-.439.689 0 1.44.139 1.948.417a.264.264 0 01-.127.496h-3.323a.264.264 0 01-.164-.474zM228.778 222.843c-.317-.061-.484-.312-.405-.609.099-.362.388-.569.661-.473.175.062.493.383.494.499.003.132-.166.447-.239.448-.03 0-.079.027-.107.06-.059.07-.246.104-.404.075zm32.632 2.328c-.118-.044-.306-.309-.306-.43.001-.23.341-.604.551-.607.105-.001.389.148.496.258.194.201.151.531-.091.717-.12.093-.476.126-.65.062zm.214 1.474c-.25-.085-.341-.207-.362-.485-.021-.287.007-.333.312-.498l.218-.119.205.092c.285.127.413.264.422.455.011.207-.143.418-.38.525-.21.094-.222.095-.415.03zm-30.226-6.47c-.205-.006-.488.182-.65.278-.385.091-.835.327-1.207.074-.366-.112-.854-.024-.91.427.095.388.637.608.966.353.243-.319.91-.507.984.037-.272.411-.241.956-.464 1.392-.037.273-.15.531-.297.761-.275.029-.567-.005-.799.168-.371.02-.752.205-.964.52-.24.343-.47.692-.539 1.113.064.431.557.555.928.576.396.109.793.252 1.189.372.644.144 1.248.376 1.893.52.941.283 1.929.413 2.877.667.099.033.193.062.297.075.394.081.599-.347.632-.669.194-.688.344-1.389.538-2.079.133-.276.294-.901-.241-.761-.306.184-.567.459-.947.483-.519.031-.224.561-.019.78.045.348-.065.765-.297 1.039-.309.196-.696-.033-1.021-.111-.342.006-1.023-.169-.705-.631.113-.343.123-.718.259-1.058.176-.366.2-.764.28-1.151-.216-.463-.582.151-.874.203-.201.141-.952.199-.556.558.341.26.08.71.018 1.04-.022.456-.497.566-.872.463-.373-.017-.892-.295-.576-.705.071-.342.191-.677.26-1.022l.408-1.224c.065-.369.196-.719.371-1.04.011-.407.284-.758.279-1.17-.028-.201-.118-.274-.241-.278zm-2.136 4.307a.213.213 0 01.131.019c.148.063.153.183 0 .315-.067.057-.143.113-.167.111-.278-.024-.359-.065-.372-.167-.01-.09.018-.115.204-.204a.782.782 0 01.204-.074zm-.614 2.982c-.296-.277-.247-.479.188-.804.186-.138.299-.123.513.071.328.299.341.49.05.746-.142.126-.204.152-.372.154-.174.002-.223-.019-.379-.167zm1.812.547a.514.514 0 01-.371-.646c.076-.259.121-.284.5-.289.424-.003.506.068.51.441.002.21-.013.26-.118.357a.635.635 0 01-.521.136v.001zm52.936.047c-.135-.112-.162-.163-.164-.306-.001-.244.139-.423.443-.561.405-.183.571-.157.723.111.203.357.193.504-.049.743-.135.133-.16.141-.467.145-.302.001-.336-.008-.486-.132zm-50.531.684c-.216-.058-.329-.221-.331-.48-.002-.199.012-.229.15-.338a.783.783 0 01.344-.146c.16-.022.216-.008.344.081.327.23.397.457.208.678-.202.235-.394.29-.715.205zm13.023.581c-.049-.059-.154-.094-.166-.17.019-.33.035-.663.141-.979.056-.312.006-.636.114-.938.111-.551.111-1.118.239-1.666.006-.281.033-.563.115-.834.093-.429.008-.878.134-1.301-.014-.16.17-.584.33-.332.234.342.542.62.844.899.261.151.021.372-.158.445-.246.099-.306.371-.289.608-.035.247-.133.48-.144.731-.052.37-.041.745-.09 1.114-.107.363-.066.749-.103 1.122.005.238-.107.452-.092.69-.028.24-.04.531-.242.696-.195.098-.478.082-.633-.085zm17.642-5.821c-.286.216-.542.472-.798.723-.352.267.29.423.371.651.094.347.089.718.112 1.076.107.328.153.676.13 1.022-.031.369-.513.291-.724.501-.292.123-.409.41-.631.612-.147.287-.185.639-.204.965.02.267-.18.564 0 .798.022.033.05.079.074.113.059.086.203.016.297.036.299-.016.611.027.891-.093.718-.125 1.444-.134 2.172-.167.445.014.874-.141 1.318-.13.349.077.506-.3.501-.576-.197-.387-.027-.848-.185-1.243-.14-.399-.085-.849-.149-1.262-.009-.326-.422-.447-.632-.205-.203.206-.53.246-.686.502-.176.358.372.358.464.631.104.275.07.582.093.872.067.352-.315.372-.557.409-.319.119-.766.2-.947-.186-.113-.285-.098-.589-.13-.891-.008-.529-.136-1.051-.167-1.578-.03-.651-.143-1.299-.185-1.949-.007-.27-.043-.712-.428-.631zm-.371 4.901l.186.018.019.222.018.224-.242.074c-.079.024-.16.042-.241.056a2.377 2.377 0 01-.111-.074c-.13-.095-.097-.229.074-.41.096-.1.142-.12.297-.11zm-17.801-5.513c-.226.08-.512.411-.742.408-.523.036-.449.546-.075.724.05.155.004.35.019.52.073.468-.223.846-.166 1.318-.027.516-.184 1.02-.205 1.54-.146.538-.149 1.09-.241 1.635-.063.489-.416.316-.725.185-.002-.212-.016-.419-.019-.631.129-.486-.261-.627-.65-.686-.406.037-.607-.311-.519-.67.176-.208.615-.15.892-.185.582.12.559-.661.259-.928-.205-.377-.712-.54-.854-.928.057-.515-.284-1.029-.705-1.281-.647-.046-1.135.513-1.374 1.058a9.54 9.54 0 00-.799.26c-.421.105-1.021.835-.445 1.113.323.09 1.308.315.873.761-.245.421-.714.428-1.132.316-.431 0-.909-.208-.891-.706-.089-.445-.075-.925-.279-1.336-.089-.498-.654-.382-.687.074-.436.318-.378.831-.074 1.208.189.433.002.936-.186 1.336-.114.52-.687.537-1.095.705-.2.078-.968-.046-.688.39.449.157.983.3 1.449.186.489-.06.913-.395 1.151-.817.328-.332.892-.158 1.318-.168.459 0 .928.323 1.373.113.13-.336.727-.889.91-.316-.031.512.422.787.891.724.514-.029.324.362.316.668.034.556.392.847.853 1.077.159.043.324.027.483 0 .445-.139.924-.338 1.058-.836.181-.404.186-.861.317-1.281.105-.67.24-1.341.259-2.022.164-.618.117-1.269.241-1.895.079-.464.137-.928.187-1.392-.056-.247-.162-.289-.298-.241zm-4.028 2.469c.09.011.139.121.149.315.009.217.121.393.259.427.108.027.099.142-.018.224-.068.046-.191.075-.409.074-.343-.002-.555-.091-.742-.279l-.112-.111.167-.112c.117-.092.229-.192.335-.297.169-.173.281-.253.371-.241zm39.227-4.679a4.834 4.834 0 00-.985.149c-.618-.039-.927.609-.334.927.357.913.915-.188 1.486-.111.853.166.925 1.089 1.058 1.783.048.686.245 1.354.445 2.004.571.636-.428 1.034-.853.539-.364-.396-1.142-.879-1.578-.334-.538.227-.559.944-1.003 1.151-.718.219-.809-.665-1.188-1.04-.349-.49-1.016-.532-1.559-.706-.256-.515-.122-1.393-.651-1.744-.443.18-1.255 1.01-.575 1.392.664.57-.29.832-.593 1.225-.435.484-.505 1.149-.576 1.764-.749.413-.895-.468-.984-1.021-.058-.661-.615-.467-1.003-.223-.566.229-.848.767-1.244 1.187-.048.386.022.806.018 1.207.129.482.716.257 1.077.223.582-.243.82.373.354.724-.317.401-1.319.192-1.226.835.323.038.659.026.983 0 .649-.177 1.344-.633 1.412-1.354.085-.629.99-.514 1.485-.65.618-.179 1.363-.225 1.504.556.421.444 1.335.941 1.801.335.471-.288.698-.794.668-1.337-.096-.465.753-.483.965-.223.31.511 1.278.359 1.745.074.496-.366.605-1.013 1.318-1.019 1.059-.319 2.159-.502 3.193-.892.839-.183-.125-.711-.334-1.021-.637-.316-1.193.975-1.911.333-.557-.425-.519-1.233-.725-1.857-.14-.806-.105-1.734-.687-2.375-.4-.425-.941-.527-1.504-.501h.001zm-4.048 5.625c.076-.002.16.035.298.112.26.143.445.381.444.576 0 .125-.032.134-.222.222-.117.054-.25.112-.297.111-.107-.001-.371-.212-.371-.297a1.474 1.474 0 00-.074-.278c-.071-.191-.059-.189.036-.316.062-.082.111-.128.186-.13zm3.88.204c.221-.014.353.054.446.222.107.196.035.345-.241.465a1.543 1.543 0 01-.26.093 1.465 1.465 0 01-.223-.13c-.16-.106-.184-.157-.186-.279-.002-.187.208-.353.464-.371zm-5.309.055c.065-.009.124.024.205.094.106.092.139.165.166.352a1.3 1.3 0 010 .371c-.029.135-.032.129-.334.13-.381.004-.415-.038-.408-.39.005-.223.007-.284.13-.408a.465.465 0 01.241-.149zm-3.267.854a.338.338 0 01.259.261c.039.188.005.274-.148.352-.132.068-.436.09-.52.037a.332.332 0 01-.111-.111c-.04-.072-.033-.107.018-.148.036-.029.075-.072.074-.093 0-.022.04-.097.094-.168a.323.323 0 01.334-.13zm5.495.707a.375.375 0 01.259.092c.111.097.106.237-.018.334-.08.062-.518.056-.669 0-.066-.024-.092-.059-.092-.13-.001-.084.022-.136.166-.204a.858.858 0 01.354-.092zm-10.201 2.862c-.057-.038-.141-.069-.057-.132.104-.18.308-.241.491-.309.324-.14.606-.38.815-.664.03-.197.252-.306.25-.512.003-.282.019-.571-.049-.847-.077-.253-.268-.447-.492-.579-.151-.119-.399-.153-.456-.364-.031-.205.151-.359.214-.54.134-.251.244-.513.387-.758.154-.171.392-.01.471.156.112.164.212.342.267.533.181.197.339.428.404.69.089.185.228.358.22.575 0 .247.14.466.13.716.008.332.008.68-.113.994-.084.175-.25.279-.361.435-.189.176-.398.345-.642.437-.171.056-.27.253-.485.205-.307.005-.616.047-.92-.003.019.033-.093-.053-.074-.033zm-4.07.267c-.144-.149-.175-.211-.176-.357-.002-.146.026-.205.167-.348.26-.263.387-.269.837-.042.43.218.575.238.613.083.038-.148.285-.284.52-.285a.489.489 0 01.351.121c.15.117.157.135.161.403.002.275-.001.286-.173.437-.164.146-.191.155-.394.135-.261-.027-.416-.146-.459-.35-.031-.149-.083-.184-.122-.083-.012.032-.077.073-.142.089-.121.031-.326.159-.471.297-.056.052-.153.077-.309.078-.211.002-.239-.011-.403-.178zm-11.774-5.286c-.395.003-.821.335-.872.723.091.447.462.885.222 1.356.165.601-.452.829-.873.482-.253-.577-.381-1.209-.761-1.727-.477-.135-.685.628-1.021.891.167.449.652.851.706 1.411.117.544-.214 1.147-.687 1.429-.406.389-.965.251-1.467.335-.607.356.447.486.725.501.622.064 1.268-.019 1.727-.482.456-.219.42-1.008.964-1.096.945-.042 1.88.146 2.822.167.505.122 1.285-.06 1.634.317.001.657.559 1.062 1.095 1.316.296.083.609-.283.911-.352.573-.182.398-.892.742-1.169.98-.053 1.97-.043 2.951-.057.187.005.242-.261.371-.371-.021-.378-.035-.755-.092-1.132-.189-.479.031-1.096-.315-1.503-.493-.135-.913.316-1.411.352-.55.245-1.015.753-1.041 1.374-.325.532-.847-.095-.668-.539-.021-.192.042-.418-.018-.593-.302-.362-.829-.244-1.244-.298-.605.025-1.196-.106-1.801-.092-.531-.04-1.081.046-1.597-.093-.612-.017-.527-.617-.63-1.039a.589.589 0 00-.372-.111zm1.189 2.19c.203.003.395.03.593.055.257.043.53-.087.78 0 .581.098 1.161.076 1.745.13.155-.002.266.11.372.205v1.224c-.019.154.045.356-.093.465a.425.425 0 01-.149.074c-.161-.041-.331-.148-.408-.298-.025-.211.011-.417.018-.63-.004-.055.025-.14 0-.186a.73.73 0 00-.427-.148c-.504-.018-.999-.056-1.503-.075-.421-.026-.852.036-1.262-.074-.16-.058-.368-.038-.465-.204-.139-.162.061-.354.204-.427.189-.087.39-.115.595-.111zm6.702.147c.093-.001.124.031.166.205l.075.298c.021.07-.013.092-.112.13-.294.11-.586.099-.687-.038-.046-.061.008-.258.093-.333.171-.155.362-.26.465-.262z"/><path fill="#fff" fill-rule="nonzero" d="M263.809 150.67c.397.024-.535-2.12-.535-2.12 1.048 1.072 5.008 1.328 5.008 1.328-2.376-1.049-4.752-8.968-4.473-15.28.257-6.335-.908-8.827-1.839-9.759-1.189-1.189-5.008-2.236-7.524-2.377-1.42-.069-1.187 1.072-1.187 1.072-2.632-.676-5.264-.931-6.452-.139-1.118.746-1.351 4.472-.536 3.82 1.98-1.584 3.704-.141 4.892 1.584 1.048 1.514.978 5.799-.536 10.806-1.584 5.264-5.917 10.529-5.917 10.529 2.352 0 5.661-2.097 5.661-2.097l-.792 3.285c2.491-1.188 4.471-3.028 4.471-3.028l2.375 2.492c.792-1.048 2.377-2.492 2.377-2.492s1.979 2.096 5.007 2.376z"/><path fill="#C09300" fill-rule="nonzero" d="M263.83 150.31c.182.01-.885-1.612-.887-1.616l.589-.397c.607.621 2.38.947 3.586 1.101-.924-1.059-1.781-2.923-2.432-5.147-.855-2.922-1.377-6.495-1.237-9.668.108-2.671-.039-4.646-.313-6.103-.359-1.904-.928-2.891-1.422-3.385-.519-.519-1.618-1.021-2.89-1.423-1.448-.457-3.103-.777-4.398-.85-.951-.045-.816.633-.815.635l.127.572-.568-.146c-1.38-.354-2.758-.592-3.915-.616-.963-.021-1.76.103-2.248.429-.557.371-.854 1.715-.861 2.632a2.55 2.55 0 00.037.5l.116-.083c.946-.651 1.843-.701 2.664-.391.782.296 1.477.924 2.068 1.662.145.181.289.376.428.578.584.844.85 2.438.749 4.485-.093 1.885-.493 4.176-1.235 6.63-1.267 4.211-4.257 8.404-5.464 9.99 2.139-.363 4.66-1.961 4.668-1.966l.754-.482-.818 3.393c2.107-1.143 3.686-2.61 3.691-2.614l.261-.244 2.336 2.452c.85-1.018 2.155-2.207 2.158-2.21l.263-.241.243.259c.005.005 1.881 1.993 4.765 2.264zm.133-.924c.234.76.402 1.679-.175 1.644l-.011-.001c-2.511-.232-4.331-1.658-4.979-2.241-.469.443-1.498 1.44-2.084 2.215l-.256.34-2.429-2.549c-.629.543-2.301 1.903-4.295 2.854l-.683.326.771-3.2c-1.137.629-3.363 1.721-5.112 1.721h-.765l.487-.59c.012-.015 4.286-5.208 5.849-10.403.726-2.403 1.117-4.633 1.207-6.457.093-1.891-.127-3.327-.622-4.042a9.192 9.192 0 00-.399-.538c-.515-.646-1.112-1.191-1.758-1.435-.608-.23-1.281-.188-2 .308l-.211.158c-.221.177-.435.2-.633.102-.187-.094-.309-.293-.373-.561a3.086 3.086 0 01-.066-.712c.008-1.088.414-2.718 1.181-3.23.618-.413 1.557-.572 2.662-.548 1.09.023 2.357.224 3.639.53.079-.457.404-1.031 1.555-.975 1.358.076 3.08.408 4.579.881 1.373.434 2.578.995 3.183 1.6.575.574 1.228 1.684 1.62 3.764.283 1.503.435 3.533.324 6.265-.136 3.096.374 6.584 1.209 9.439.829 2.832 1.955 5.013 3.049 5.497l-.169.69c-.009 0-2.666-.172-4.295-.852z"/><path fill="#C09300" fill-rule="nonzero" d="M254.564 135.56c-.004.028-1.343 9.876-3.912 12.732l-.56-.503c2.416-2.686 3.724-12.302 3.727-12.329l.745.1zm2.1-.286c-.001.028-.518 9.959-2.282 13.203l-.66-.36c1.682-3.091 2.19-12.854 2.191-12.882l.751.039zm1.861.378c0 .03 0 10.744.63 12.522l-.71.25c-.674-1.901-.675-12.741-.675-12.772h.755zm2.351.514c.002.025.53 8.978 2.707 12.176l-.622.425c-2.293-3.37-2.835-12.534-2.836-12.559l.751-.042zM251.792 130.781c-.117-.862-.326-1.538-.629-1.98-1.188-1.723-2.91-3.168-4.892-1.584 0 0 .677-2.097 2.121-2.166 1.118-.07 3.656.838 5.892 4.658 0 0-1.654-.373-2.048-.023-.747.652-.444 1.095-.444 1.095zm-5.726-6.148c.162-.537.418-1.025.744-1.236 1.188-.792 3.82-.535 6.453.14 0 0-.233-1.141 1.187-1.071 2.516.139 6.334 1.188 7.522 2.376.279.303.607.746.885 1.42h-.046c-.582-.815-2.236-.768-2.632-.722-.628.071-1.024.046-1.864.257-.396.093-1.001.209-1.327.465-.257.209-.466.979-.861.979-.629 0-.583-.163-.746-.35-.209-.255-.327-.629-.536-.605-.652.117-1.699-.396-3.027-1.444-1.327-1.048-1.84-1.305-3.563-1.188-1.701.139-2.236 1.094-2.236 1.094l.047-.115z"/><path fill="#C09300" fill-rule="nonzero" d="M251.633 130.444a6.093 6.093 0 00-.188-.788 3.04 3.04 0 00-.369-.796c-.584-.847-1.298-1.627-2.105-1.996-.791-.362-1.681-.327-2.634.435l-.268.214.102-.327c.002-.006.7-2.166 2.215-2.24.671-.042 1.836.256 3.137 1.284.92.727 1.913 1.823 2.851 3.426l.123.21-.236-.055c-.005-.001-1.601-.361-1.956-.046-.315.274-.429.5-.461.664l.052.338-.191.072c0-.001-.101-.149-.072-.395zm.011-.852c.047.148.089.305.127.471.083-.139.208-.292.396-.456.336-.296 1.424-.136 1.907-.047-.888-1.469-1.818-2.483-2.681-3.166-1.253-.99-2.362-1.278-2.995-1.238-1.026.049-1.648 1.189-1.899 1.765.917-.609 1.78-.604 2.559-.248.846.388 1.588 1.194 2.191 2.068.156.228.288.514.395.851zm-5.678-4.99c.087-.29.202-.568.34-.797.128-.213.279-.387.448-.496.572-.38 1.459-.527 2.512-.504 1.153.025 2.513.251 3.878.594-.01-.34.101-1.097 1.311-1.038 1.334.074 3.031.402 4.511.869 1.339.423 2.506.963 3.081 1.537l.003.004c.142.154.297.346.453.585.154.237.309.523.451.867l.06.144h-.257l-.031-.044c-.202-.283-.55-.456-.925-.558-.645-.177-1.368-.148-1.61-.12l-.489.044c-.394.031-.766.06-1.361.209l-.141.033c-.378.086-.875.2-1.147.414-.079.066-.163.211-.252.365-.173.303-.364.636-.674.636-.56 0-.644-.126-.754-.29l-.072-.097a2.476 2.476 0 01-.193-.286c-.094-.154-.177-.29-.25-.283-.346.06-.786-.04-1.306-.288-.518-.247-1.124-.645-1.799-1.178-.654-.517-1.107-.838-1.603-1.014-.494-.175-1.042-.209-1.887-.152-1.645.135-2.152 1.04-2.153 1.042l-.188-.091.044-.107zm.52-.689a2.826 2.826 0 00-.181.361c.346-.293.955-.644 1.942-.725.877-.059 1.448-.023 1.973.163.523.185.991.517 1.663 1.048.662.522 1.254.911 1.759 1.152.484.23.884.325 1.185.27l.007-.001c.206-.023.322.167.453.383.053.087.111.182.173.258.037.042.063.082.087.118.074.111.132.196.58.196.188 0 .348-.278.493-.531.099-.172.193-.335.302-.424.309-.243.833-.364 1.231-.454l.137-.032c.615-.154.994-.184 1.396-.216l.482-.043c.253-.029 1.01-.059 1.688.127.256.07.503.171.708.315a4.695 4.695 0 00-.237-.408 4.157 4.157 0 00-.429-.554c-.55-.549-1.686-1.072-2.996-1.486-1.464-.462-3.142-.787-4.457-.86-1.285-.062-1.08.941-1.08.944l.037.167-.165-.043c-1.399-.358-2.797-.599-3.975-.624-1.013-.021-1.86.115-2.394.471a1.303 1.303 0 00-.382.428z"/><path fill="#fff" d="M255.798 124.772a.698.698 0 11.002 1.396.698.698 0 01-.002-1.396z"/><path fill="#fff" fill-rule="nonzero" d="M256.484 194.714c19.393-14.915 17.729-36.763 17.729-36.763a7.496 7.496 0 01-1.509.154c-4.067 0-13.769-2.328-16.033-5.283-2.424 2.674-12.338 5.283-16.38 5.283a7.323 7.323 0 01-1.509-.154s-1.688 21.847 17.702 36.763z"/><path fill="#C09300" fill-rule="nonzero" d="M256.484 194.28c17.563-13.661 17.522-32.989 17.409-35.927l-.399.052a7.846 7.846 0 01-.79.041c-2.302 0-6.379-.734-9.921-1.901-2.624-.864-4.971-1.976-6.132-3.222-1.267 1.169-3.8 2.297-6.579 3.193-3.559 1.148-7.549 1.93-9.781 1.93-.261 0-.53-.014-.802-.041l-.387-.05c-.117 2.944-.174 22.266 17.382 35.925zm18.07-36.35c.004.063 1.675 22.027-17.861 37.053l-.209.16-.208-.16c-19.535-15.027-17.839-36.99-17.834-37.053l.026-.393.383.08c.231.049.468.086.706.11.236.024.482.036.734.036 2.173 0 6.078-.768 9.573-1.895 2.896-.934 5.496-2.106 6.555-3.275l.275-.302.248.324c.952 1.243 3.339 2.387 6.055 3.282 3.477 1.146 7.465 1.866 9.707 1.866a7.262 7.262 0 001.443-.146l.381-.076.026.389z"/><path fill="#C09300" fill-rule="nonzero" d="M272.395 159.83l-.231.009c-2.076 0-5.682-.594-9.04-1.615-2.576-.783-5.014-1.821-6.521-3.041-1.615 1.162-4.21 2.213-6.906 3.021-3.348 1.003-6.87 1.635-8.871 1.635l-.234-.012c.002.306.009.618.021.926.015.401.039.81.066 1.206.094 1.432.266 2.868.509 4.291a44.12 44.12 0 00.958 4.299c1.211 4.389 3.055 8.45 5.483 12.121 2.396 3.624 5.363 6.869 8.853 9.677 3.494-2.81 6.464-6.058 8.863-9.685 2.432-3.675 4.278-7.739 5.491-12.131.389-1.407.712-2.847.961-4.302.244-1.422.416-2.856.511-4.287.025-.452.051-.954.067-1.403l.02-.709zm-.231-.535l.773-.025.002.279c.001.275-.008.63-.022 1.009-.017.471-.042.975-.067 1.416a42.267 42.267 0 01-.518 4.347 44.896 44.896 0 01-.974 4.355c-1.229 4.448-3.099 8.565-5.56 12.285-2.469 3.732-5.535 7.069-9.147 9.945l-.169.134-.168-.134c-3.609-2.874-6.672-6.207-9.138-9.936-2.458-3.718-4.326-7.831-5.552-12.276a44.844 44.844 0 01-.971-4.353 42.308 42.308 0 01-.582-5.567 26.495 26.495 0 01-.02-1.262l.003-.322.316.058.233.035c.069.007.144.012.223.012 1.956 0 5.416-.624 8.716-1.611 2.743-.822 5.368-1.893 6.908-3.061l.174-.132.166.142c1.428 1.227 3.883 2.28 6.491 3.073 3.305 1.004 6.848 1.589 8.883 1.589z"/><path fill="#C09300" d="M251.075 157.644v29.696c-4.231-4.768-7.29-10.4-9.032-16.718a42.983 42.983 0 01-1.463-8.552l-.085-2.435c.166.032.333.05.501.051 2.235 0 6.415-.807 10.079-2.042z"/><path fill="#fff" d="M261.921 157.71v29.599a43.099 43.099 0 01-5.438 5.151 43.235 43.235 0 01-5.408-5.12v-29.696c2.22-.75 4.25-1.655 5.541-2.634 1.218 1.046 3.16 1.962 5.305 2.7z"/><path fill="#C09300" d="M261.921 187.309V157.71c3.608 1.241 7.792 1.976 10.079 1.976l.498-.015-.003-.003c-.008.796-.038 1.59-.086 2.384a43.06 43.06 0 01-1.467 8.553c-1.742 6.31-4.797 11.938-9.021 16.704z"/></svg>